#!OML:ASF H:\Terrain\Patient Classification 1\Animal1\Tuesday\Animal1.ASF
:FULLY-SPECIFIED
:DEGREES
2517
root 3.03889 16.3682 0.609704 -1083.06 -27.4756 -356.74
lowerback -7.27454 -0.751955 -2.00797
upperback 2.51726 -0.81934 0.198237
thorax 6.75354 -0.4932 1.22946
lowerneck 14.5624 3.16861 -3.59114
upperneck 12.4636 3.01627 8.05702
head 1.3518 1.29022 3.15757
rclavicle -4.40557e-014 9.14409e-015
rhumerus -37.0497 20.0285 -93.0632
rradius 22.8877
rwrist -47.3586
rhand 25.1931 -369.099
rfingers 7.12502
rthumb 49.3384 -30.6626
lclavicle -4.40557e-014 9.14409e-015
lhumerus -61.809 -33.671 115.698
lradius 49.8296
lwrist 56.3977
lhand -13.2068 64.0251
lfingers 7.12502
lthumb 12.8938 266.393
rfemur -9.70852 17.1956 24.6979
rtibia 32.8781
rfoot -15.0565 -14.021
rtoes 0.579092
lfemur -3.26609 -9.25911 -12.8553
ltibia 47.7927
lfoot 29.7092 -5.89897
ltoes 19.7181
2518
root 3.04063 16.3642 0.602615 -1082.91 -27.5386 -357.146
lowerback -7.14143 -0.720601 -1.5516
upperback 2.7032 -0.830337 0.287396
thorax 6.86833 -0.483517 1.06507
lowerneck 14.7708 3.2868 -3.73279
upperneck 11.9138 3.18398 8.14059
head 1.1192 1.35953 3.19402
rclavicle 4.06266e-015 3.97569e-015
rhumerus -36.8701 20.5678 -93.1262
rradius 23.1127
rwrist -48.1614
rhand 24.3931 -371.48
rfingers 7.12502
rthumb 48.6034 -33.4062
lclavicle 4.06266e-015 3.97569e-015
lhumerus -61.1948 -33.5676 115.092
lradius 49.7962
lwrist 55.9626
lhand -14.141 64.1094
lfingers 7.12502
lthumb 11.9932 266.254
rfemur -9.66096 17.2333 25.1198
rtibia 32.8291
rfoot -14.9699 -14.0558
rtoes 1.0588
lfemur -3.38878 -9.18797 -12.4073
ltibia 47.9548
lfoot 29.7021 -6.24006
ltoes 18.8398
2519
root 3.04241 16.3568 0.593822 -1082.81 -27.5682 -357.384
lowerback -6.96393 -0.715271 -1.35096
upperback 2.82197 -0.851791 0.382534
thorax 6.89107 -0.488692 1.05029
lowerneck 15.1073 3.41957 -3.9798
upperneck 11.2779 3.35372 8.31075
head 0.832982 1.42182 3.27861
rclavicle -2.31584e-014 6.36111e-015
rhumerus -36.5883 20.6628 -92.9019
rradius 23.2219
rwrist -47.8678
rhand 24.7868 -371.534
rfingers 7.12502
rthumb 48.9653 -33.2838
lclavicle -2.31584e-014 6.36111e-015
lhumerus -60.6587 -33.3721 114.661
lradius 49.7548
lwrist 55.6291
lhand -13.5088 63.5269
lfingers 7.12502
lthumb 12.6027 266.873
rfemur -9.75 17.1962 25.3718
rtibia 32.9081
rfoot -14.7144 -14.362
rtoes -0.518838
lfemur -3.54196 -9.19199 -12.128
ltibia 48.1048
lfoot 30.0333 -5.76069
ltoes 20.7806
2520
root 3.04439 16.3506 0.582894 -1082.88 -27.6046 -357.249
lowerback -6.63492 -0.717586 -1.56008
upperback 2.93736 -0.84305 0.433306
thorax 6.82826 -0.495667 1.22478
lowerneck 14.9838 3.49586 -4.29159
upperneck 10.9575 3.43292 8.49053
head 0.730111 1.45053 3.39358
rclavicle 7.29167e-014 -1.98785e-015
rhumerus -36.3026 20.5858 -92.5339
rradius 23.4251
rwrist -47.6593
rhand 24.9833 -371.614
rfingers 7.12502
rthumb 49.1459 -33.2742
lclavicle 7.29167e-014 -1.98785e-015
lhumerus -59.85 -32.9084 114.007
lradius 49.654
lwrist 54.9156
lhand -11.7916 62.884
lfingers 7.12502
lthumb 14.2579 267.625
rfemur -9.91591 17.1389 25.255
rtibia 33.0948
rfoot -14.5078 -14.5482
rtoes -1.94193
lfemur -3.65643 -9.2139 -12.2434
ltibia 48.2318
lfoot 30.0518 -5.40469
ltoes 22.1302
2521
root 3.04681 16.3413 0.571227 -1082.97 -27.6675 -357.107
lowerback -6.27487 -0.702034 -1.77856
upperback 3.06964 -0.810493 0.469812
thorax 6.76441 -0.49124 1.39256
lowerneck 14.503 3.51901 -4.47735
upperneck 10.9589 3.45205 8.62993
head 0.800348 1.46546 3.48209
rclavicle -1.50579e-014 -5.96354e-015
rhumerus -35.9543 20.2987 -92.1346
rradius 23.6074
rwrist -47.378
rhand 26.0553 -370.371
rfingers 7.12502
rthumb 50.1282 -31.5263
lclavicle -1.50579e-014 -5.96354e-015
lhumerus -59.0005 -32.4273 113.231
lradius 49.5748
lwrist 54.0661
lhand -7.40951 61.9327
lfingers 7.12502
lthumb 18.4769 268.925
rfemur -10.0683 17.1364 25.106
rtibia 33.3151
rfoot -14.6603 -14.353
rtoes -1.2176
lfemur -3.74011 -9.10646 -12.3352
ltibia 48.3576
lfoot 30.031 -5.46584
ltoes 21.9313
2522
root 3.04791 16.3346 0.564376 -1082.91 -27.7192 -357.281
lowerback -6.06573 -0.671698 -1.67091
upperback 3.20045 -0.788646 0.553202
thorax 6.78137 -0.47929 1.42323
lowerneck 14.2992 3.59946 -4.56746
upperneck 10.7713 3.56403 8.76888
head 0.757861 1.52197 3.54227
rclavicle -2.77056e-014 3.97569e-015
rhumerus -35.7634 19.9661 -91.8132
rradius 23.8301
rwrist -47.3166
rhand 28.0752 -368.006
rfingers 7.12502
rthumb 51.9684 -28.1302
lclavicle -2.77056e-014 3.97569e-015
lhumerus -58.4354 -31.9856 112.628
lradius 49.5915
lwrist 53.4195
lhand -4.15031 61.3212
lfingers 7.12502
lthumb 21.6096 269.865
rfemur -10.1658 17.1065 25.2584
rtibia 33.5116
rfoot -14.8779 -14.0047
rtoes 0.160152
lfemur -3.82655 -8.98368 -12.1009
ltibia 48.4875
lfoot 30.0297 -5.68182
ltoes 21.0809
2523
root 3.0477 16.334 0.5601 -1082.78 -27.7486 -357.477
lowerback -5.97398 -0.652774 -1.517
upperback 3.28892 -0.783967 0.63617
thorax 6.82099 -0.473333 1.42454
lowerneck 14.5366 3.69336 -4.46575
upperneck 10.2533 3.73669 8.66195
head 0.539208 1.60284 3.46663
rclavicle -1.19519e-014 7.15625e-015
rhumerus -35.7841 19.8695 -91.6065
rradius 24.2463
rwrist -48.0233
rhand 28.1832 -368.394
rfingers 7.12502
rthumb 52.0664 -28.4597
lclavicle -1.19519e-014 7.15625e-015
lhumerus -57.9606 -31.3398 112.029
lradius 49.6515
lwrist 52.7765
lhand -4.21371 61.0722
lfingers 7.12502
lthumb 21.5487 89.8934
rfemur -10.2969 17.0594 25.4362
rtibia 33.6586
rfoot -14.9118 -13.8761
rtoes 0.335725
lfemur -3.96743 -8.88227 -11.86
ltibia 48.6163
lfoot 30.2028 -5.77404
ltoes 21.276
2524
root 3.04656 16.3342 0.554592 -1082.72 -27.7902 -357.477
lowerback -5.80821 -0.630184 -1.57428
upperback 3.34593 -0.753536 0.671148
thorax 6.7862 -0.462261 1.49805
lowerneck 14.6487 3.71202 -4.21787
upperneck 9.923 3.82242 8.48129
head 0.415992 1.6499 3.34627
rclavicle -3.58558e-014 -3.97569e-016
rhumerus -35.7411 19.8367 -91.4278
rradius 24.6157
rwrist -48.4636
rhand 26.0199 -371.116
rfingers 7.12502
rthumb 50.0959 -32.2884
lclavicle -3.58558e-014 -3.97569e-016
lhumerus -57.4929 -30.72 111.485
lradius 49.652
lwrist 52.1106
lhand -7.55302 59.3275
lfingers 7.12502
lthumb 18.3389 88.483
rfemur -10.466 17.0846 25.4218
rtibia 33.7859
rfoot -15.0104 -13.8162
rtoes 0.247081
lfemur -4.10978 -8.73017 -11.8207
ltibia 48.7247
lfoot 30.4677 -6.59647
ltoes 19.3709
2525
root 3.04645 16.3356 0.54903 -1082.76 -27.833 -357.366
lowerback -5.5537 -0.606308 -1.77366
upperback 3.41707 -0.712722 0.734616
thorax 6.71738 -0.453234 1.68291
lowerneck 14.4026 3.73078 -4.30262
upperneck 9.84859 3.8478 8.57801
head 0.425192 1.66521 3.39664
rclavicle -1.76918e-014 3.97569e-016
rhumerus -35.7797 19.9625 -91.2745
rradius 24.9884
rwrist -48.7071
rhand 24.0558 -372.15
rfingers 7.12502
rthumb 48.2929 -34.2255
lclavicle -1.76918e-014 3.97569e-016
lhumerus -56.9316 -30.0179 110.984
lradius 49.5644
lwrist 51.3616
lhand -12.9738 54.4903
lfingers 7.12502
lthumb 13.1185 84.0577
rfemur -10.611 17.0796 25.3019
rtibia 33.9325
rfoot -15.2016 -13.6668
rtoes 0.778245
lfemur -4.17875 -8.63092 -11.9215
ltibia 48.7995
lfoot 30.401 -7.71203
ltoes 15.2514
